<svg width="252" height="36" viewBox="0 0 252 36" fill="none" xmlns="http://www.w3.org/2000/svg">
<path opacity="0.4" d="M10.232 28.432C11.432 28.432 12.548 28.24 13.58 27.856C14.636 27.448 15.512 26.872 16.208 26.128V28H21.248V0.747999H15.848V10C14.456 8.608 12.572 7.912 10.196 7.912C8.324 7.912 6.632 8.368 5.12 9.28C3.608 10.192 2.408 11.428 1.52 12.988C0.632 14.524 0.188 16.252 0.188 18.172C0.188 20.068 0.62 21.796 1.484 23.356C2.372 24.916 3.572 26.152 5.084 27.064C6.596 27.976 8.312 28.432 10.232 28.432ZM10.88 23.572C9.392 23.572 8.168 23.068 7.208 22.06C6.248 21.052 5.768 19.756 5.768 18.172C5.768 16.612 6.248 15.328 7.208 14.32C8.168 13.288 9.392 12.772 10.88 12.772C12.344 12.772 13.532 13.276 14.444 14.284C15.38 15.292 15.848 16.588 15.848 18.172C15.848 19.78 15.38 21.088 14.444 22.096C13.532 23.08 12.344 23.572 10.88 23.572ZM34.6707 28.432C36.6867 28.432 38.4507 28 39.9627 27.136C41.4747 26.248 42.5307 25.084 43.1307 23.644L38.8107 21.592C38.4267 22.264 37.8867 22.792 37.1907 23.176C36.5187 23.56 35.7027 23.752 34.7427 23.752C33.4227 23.752 32.3427 23.38 31.5027 22.636C30.6627 21.892 30.1707 20.908 30.0267 19.684H43.7787C43.8747 19.42 43.9347 19.108 43.9587 18.748C44.0067 18.364 44.0307 17.98 44.0307 17.596C44.0307 15.772 43.6467 14.14 42.8787 12.7C42.1347 11.236 41.0427 10.072 39.6027 9.208C38.1627 8.344 36.3987 7.912 34.3107 7.912C32.4387 7.912 30.7587 8.356 29.2707 9.244C27.7827 10.132 26.5947 11.344 25.7067 12.88C24.8427 14.416 24.4107 16.168 24.4107 18.136C24.4107 20.032 24.8307 21.76 25.6707 23.32C26.5107 24.88 27.6987 26.128 29.2347 27.064C30.7707 27.976 32.5827 28.432 34.6707 28.432ZM34.3107 12.232C35.4147 12.232 36.3267 12.556 37.0467 13.204C37.7667 13.852 38.1867 14.692 38.3067 15.724H30.1347C30.3987 14.596 30.8907 13.732 31.6107 13.132C32.3547 12.532 33.2547 12.232 34.3107 12.232ZM54.9145 28.432C57.1945 28.432 59.0305 27.868 60.4225 26.74C61.8145 25.612 62.5105 24.136 62.5105 22.312C62.5105 20.896 62.0785 19.708 61.2145 18.748C60.3505 17.764 59.1025 17.032 57.4705 16.552L54.3385 15.616C52.9225 15.208 52.2145 14.62 52.2145 13.852C52.2145 13.348 52.4065 12.952 52.7905 12.664C53.1985 12.376 53.7505 12.232 54.4465 12.232C55.4065 12.232 56.2585 12.484 57.0025 12.988C57.7705 13.468 58.2985 14.116 58.5865 14.932L62.5825 13.06C61.9825 11.428 60.9505 10.168 59.4865 9.28C58.0465 8.368 56.3665 7.912 54.4465 7.912C52.9825 7.912 51.6865 8.176 50.5585 8.704C49.4305 9.208 48.5545 9.916 47.9305 10.828C47.3065 11.74 46.9945 12.808 46.9945 14.032C46.9945 15.424 47.4265 16.636 48.2905 17.668C49.1545 18.676 50.3905 19.408 51.9985 19.864L55.3465 20.8C56.6425 21.16 57.2905 21.736 57.2905 22.528C57.2905 23.704 56.4985 24.292 54.9145 24.292C53.8585 24.292 52.8985 23.992 52.0345 23.392C51.1705 22.792 50.4865 21.964 49.9825 20.908L46.0225 22.78C46.5985 24.508 47.6785 25.888 49.2625 26.92C50.8705 27.928 52.7545 28.432 54.9145 28.432ZM65.7378 6.58H71.1378V1.18H65.7378V6.58ZM65.7378 28H71.1378V8.344H65.7378V28ZM84.7374 35.92C86.6334 35.92 88.3014 35.536 89.7414 34.768C91.2054 34 92.3574 32.932 93.1974 31.564C94.0374 30.22 94.4574 28.684 94.4574 26.956V8.344H89.4174V10.396C88.0254 8.74 86.1174 7.912 83.6934 7.912C81.8934 7.912 80.2854 8.32 78.8694 9.136C77.4534 9.952 76.3374 11.08 75.5214 12.52C74.7054 13.936 74.2974 15.568 74.2974 17.416C74.2974 19.264 74.7054 20.92 75.5214 22.384C76.3374 23.824 77.4654 24.964 78.9054 25.804C80.3454 26.62 81.9774 27.028 83.8014 27.028C86.0094 27.028 87.7614 26.38 89.0574 25.084V26.956C89.0574 28.228 88.6734 29.224 87.9054 29.944C87.1374 30.688 86.0814 31.06 84.7374 31.06C83.6094 31.06 82.6374 30.796 81.8214 30.268C81.0054 29.74 80.4654 29.02 80.2014 28.108L75.1974 29.872C75.6054 31.096 76.2654 32.152 77.1774 33.04C78.1134 33.952 79.2294 34.66 80.5254 35.164C81.8214 35.668 83.2254 35.92 84.7374 35.92ZM84.5574 22.132C83.1894 22.132 82.0614 21.7 81.1734 20.836C80.3094 19.972 79.8774 18.856 79.8774 17.488C79.8774 16.096 80.3094 14.968 81.1734 14.104C82.0614 13.216 83.1894 12.772 84.5574 12.772C85.9014 12.772 86.9814 13.204 87.7974 14.068C88.6374 14.932 89.0574 16.072 89.0574 17.488C89.0574 18.88 88.6374 20.008 87.7974 20.872C86.9814 21.712 85.9014 22.132 84.5574 22.132ZM98.4331 28H103.833V16.516C103.833 15.388 104.169 14.488 104.841 13.816C105.513 13.12 106.377 12.772 107.433 12.772C108.489 12.772 109.353 13.12 110.025 13.816C110.697 14.488 111.033 15.388 111.033 16.516V28H116.433V15.364C116.433 13.876 116.121 12.58 115.497 11.476C114.873 10.348 113.997 9.472 112.869 8.848C111.765 8.224 110.469 7.912 108.981 7.912C107.733 7.912 106.629 8.152 105.669 8.632C104.709 9.088 103.977 9.796 103.473 10.756V8.344H98.4331V28ZM134.157 28.432C136.437 28.432 138.273 27.868 139.665 26.74C141.057 25.612 141.753 24.136 141.753 22.312C141.753 20.896 141.321 19.708 140.457 18.748C139.593 17.764 138.345 17.032 136.713 16.552L133.581 15.616C132.165 15.208 131.457 14.62 131.457 13.852C131.457 13.348 131.649 12.952 132.033 12.664C132.441 12.376 132.993 12.232 133.689 12.232C134.649 12.232 135.501 12.484 136.245 12.988C137.013 13.468 137.541 14.116 137.829 14.932L141.825 13.06C141.225 11.428 140.193 10.168 138.729 9.28C137.289 8.368 135.609 7.912 133.689 7.912C132.225 7.912 130.929 8.176 129.801 8.704C128.673 9.208 127.797 9.916 127.173 10.828C126.549 11.74 126.237 12.808 126.237 14.032C126.237 15.424 126.669 16.636 127.533 17.668C128.397 18.676 129.633 19.408 131.241 19.864L134.589 20.8C135.885 21.16 136.533 21.736 136.533 22.528C136.533 23.704 135.741 24.292 134.157 24.292C133.101 24.292 132.141 23.992 131.277 23.392C130.413 22.792 129.729 21.964 129.225 20.908L125.265 22.78C125.841 24.508 126.921 25.888 128.505 26.92C130.113 27.928 131.997 28.432 134.157 28.432ZM147.688 35.992C151.288 35.992 153.892 33.94 155.5 29.836L163.924 8.344H158.128L153.484 20.98L148.84 8.344H143.044L150.784 28L150.424 28.828C150.136 29.476 149.764 30.052 149.308 30.556C148.852 31.06 148.096 31.312 147.04 31.312C146.176 31.312 145.36 31.192 144.592 30.952V35.38C145 35.596 145.468 35.752 145.996 35.848C146.548 35.944 147.112 35.992 147.688 35.992ZM173.989 28.432C176.269 28.432 178.105 27.868 179.497 26.74C180.889 25.612 181.585 24.136 181.585 22.312C181.585 20.896 181.153 19.708 180.289 18.748C179.425 17.764 178.177 17.032 176.545 16.552L173.413 15.616C171.997 15.208 171.289 14.62 171.289 13.852C171.289 13.348 171.481 12.952 171.865 12.664C172.273 12.376 172.825 12.232 173.521 12.232C174.481 12.232 175.333 12.484 176.077 12.988C176.845 13.468 177.373 14.116 177.661 14.932L181.657 13.06C181.057 11.428 180.025 10.168 178.561 9.28C177.121 8.368 175.441 7.912 173.521 7.912C172.057 7.912 170.761 8.176 169.633 8.704C168.505 9.208 167.629 9.916 167.005 10.828C166.381 11.74 166.069 12.808 166.069 14.032C166.069 15.424 166.501 16.636 167.365 17.668C168.229 18.676 169.465 19.408 171.073 19.864L174.421 20.8C175.717 21.16 176.365 21.736 176.365 22.528C176.365 23.704 175.573 24.292 173.989 24.292C172.933 24.292 171.973 23.992 171.109 23.392C170.245 22.792 169.561 21.964 169.057 20.908L165.097 22.78C165.673 24.508 166.753 25.888 168.337 26.92C169.945 27.928 171.829 28.432 173.989 28.432ZM194.28 28.216C195.168 28.216 196.008 28.156 196.8 28.036V23.428C196.296 23.5 195.876 23.536 195.54 23.536C193.308 23.536 192.192 22.54 192.192 20.548V13.024H196.8V8.344H192.192V3.88H186.792V5.32C186.792 7.336 185.748 8.344 183.66 8.344H183.48V13.024H186.792V20.908C186.792 23.212 187.44 25.012 188.736 26.308C190.056 27.58 191.904 28.216 194.28 28.216ZM209.432 28.432C211.448 28.432 213.212 28 214.724 27.136C216.236 26.248 217.292 25.084 217.892 23.644L213.572 21.592C213.188 22.264 212.648 22.792 211.952 23.176C211.28 23.56 210.464 23.752 209.504 23.752C208.184 23.752 207.104 23.38 206.264 22.636C205.424 21.892 204.932 20.908 204.788 19.684H218.54C218.636 19.42 218.696 19.108 218.72 18.748C218.768 18.364 218.792 17.98 218.792 17.596C218.792 15.772 218.408 14.14 217.64 12.7C216.896 11.236 215.804 10.072 214.364 9.208C212.924 8.344 211.16 7.912 209.072 7.912C207.2 7.912 205.52 8.356 204.032 9.244C202.544 10.132 201.356 11.344 200.468 12.88C199.604 14.416 199.172 16.168 199.172 18.136C199.172 20.032 199.592 21.76 200.432 23.32C201.272 24.88 202.46 26.128 203.996 27.064C205.532 27.976 207.344 28.432 209.432 28.432ZM209.072 12.232C210.176 12.232 211.088 12.556 211.808 13.204C212.528 13.852 212.948 14.692 213.068 15.724H204.896C205.16 14.596 205.652 13.732 206.372 13.132C207.116 12.532 208.016 12.232 209.072 12.232ZM221.972 28H227.372V16.516C227.372 15.388 227.672 14.488 228.272 13.816C228.896 13.12 229.736 12.772 230.792 12.772C231.848 12.772 232.676 13.12 233.276 13.816C233.9 14.488 234.212 15.388 234.212 16.516V28H239.612V16.516C239.612 15.388 239.912 14.488 240.512 13.816C241.136 13.12 241.976 12.772 243.032 12.772C244.088 12.772 244.916 13.12 245.516 13.816C246.14 14.488 246.452 15.388 246.452 16.516V28H251.852V15.364C251.852 13.876 251.54 12.58 250.916 11.476C250.292 10.348 249.428 9.472 248.324 8.848C247.244 8.224 245.996 7.912 244.58 7.912C243.308 7.912 242.144 8.164 241.088 8.668C240.056 9.148 239.192 9.904 238.496 10.936C237.944 10 237.128 9.268 236.048 8.74C234.992 8.188 233.816 7.912 232.52 7.912C231.272 7.912 230.168 8.152 229.208 8.632C228.248 9.088 227.516 9.796 227.012 10.756V8.344H221.972V28Z" fill="#13183F"/>
</svg>
